<svg width="256" height="256" viewBox="0 0 256 256" fill="none" xmlns="http://www.w3.org/2000/svg">
<g clip-path="url(#clip0_1197_17987)">
<rect width="256" height="256" fill="white"/>
<path d="M72.3225 115.613C81.5623 115.613 89.628 119.366 95.6747 125.284H95.6837L130.716 160.326C136.909 166.529 140.387 174.925 140.387 183.687V220.215C140.387 221.738 139.158 222.968 137.634 222.968H110.107C108.584 222.968 107.355 221.738 107.355 220.215V156.903C107.355 152.343 103.657 148.645 99.0967 148.645H35.7849C34.2618 148.645 33.0322 147.416 33.0322 145.892V118.366C33.0322 116.842 34.2618 115.613 35.7849 115.613H72.3225Z" fill="black"/>
<path d="M113.613 74.3225C122.853 74.3226 130.918 78.0755 136.965 83.9937H136.974L172.006 119.036C178.2 125.239 181.677 133.634 181.677 142.397V220.215C181.677 221.738 180.448 222.968 178.925 222.968H151.398C149.875 222.968 148.645 221.738 148.645 220.215V115.613C148.645 111.053 144.947 107.355 140.387 107.355H35.7849C34.2618 107.355 33.0322 106.125 33.0322 104.602V77.0752C33.0322 75.5521 34.2618 74.3225 35.7849 74.3225H113.613Z" fill="black"/>
<path d="M154.903 33.0322C164.143 33.0323 172.209 36.7852 178.255 42.7034H178.264L213.297 77.7455C219.49 83.9482 222.968 92.344 222.968 101.107V220.215C222.968 221.738 221.738 222.968 220.215 222.968H192.688C191.165 222.968 189.935 221.738 189.935 220.215V74.3225C189.935 69.7623 186.238 66.0645 181.677 66.0645H35.7849C34.2618 66.0645 33.0322 64.835 33.0322 63.3118V35.7849C33.0322 34.2618 34.2618 33.0322 35.7849 33.0322H154.903Z" fill="black"/>
</g>
<defs>
<clipPath id="clip0_1197_17987">
<rect width="256" height="256" fill="white"/>
</clipPath>
</defs>
</svg>
